<?xml version="1.0" standalone="no"?>
<!DOCTYPE svg PUBLIC "-//W3C//DTD SVG 20010904//EN"
 "http://www.w3.org/TR/2001/REC-SVG-20010904/DTD/svg10.dtd">
<svg version="1.0" xmlns="http://www.w3.org/2000/svg"
 width="500.000000pt" height="500.000000pt" viewBox="0 0 500.000000 500.000000"
 preserveAspectRatio="xMidYMid meet">
<metadata>
Created by potrace 1.14, written by Peter Selinger 2001-2017
</metadata>
<g transform="translate(0.000000,500.000000) scale(0.100000,-0.100000)"
fill="#000000" stroke="none">
<path d="M1950 3935 c-144 -16 -269 -40 -317 -60 -19 -8 -92 -49 -164 -92
-103 -61 -146 -94 -205 -155 -134 -141 -313 -447 -321 -549 -4 -48 0 -64 42
-149 l47 -95 -6 -85 c-3 -47 -9 -126 -12 -176 -8 -107 4 -138 69 -185 74 -52
77 -57 77 -98 0 -83 59 -387 95 -491 48 -136 79 -193 133 -241 73 -63 96 -65
231 -18 211 74 282 93 303 80 10 -6 26 -11 36 -11 10 0 23 -5 29 -11 7 -7 63
-15 125 -19 104 -6 122 -10 218 -52 l105 -45 11 -130 c16 -208 25 -214 311
-222 l192 -6 33 -32 c44 -43 102 -66 165 -65 42 0 76 11 161 51 152 70 182 77
281 63 61 -9 115 -9 218 0 106 9 156 9 221 -1 210 -30 359 -24 448 19 84 41
157 169 124 220 -5 9 -5 17 0 20 6 3 13 73 16 156 4 82 4 146 1 143 -4 -3 -8
-16 -10 -30 -2 -13 -8 -23 -13 -22 -22 6 -66 51 -81 83 -8 19 -20 46 -26 59
-10 19 -8 25 7 37 18 12 18 15 2 38 -9 14 -16 34 -16 44 0 10 -16 33 -35 52
-39 38 -43 50 -17 50 9 0 40 -30 67 -65 28 -36 53 -65 58 -65 4 0 7 -4 7 -10
0 -5 11 -26 25 -46 l25 -37 0 298 0 297 -32 26 c-18 15 -58 53 -88 85 -30 31
-60 57 -66 57 -6 0 -30 14 -52 30 -44 32 -57 75 -27 86 19 8 19 24 0 24 -8 0
-15 4 -15 9 0 5 -9 12 -19 16 -11 3 -54 48 -96 98 -41 51 -89 101 -105 111
-17 9 -30 22 -30 28 0 6 -15 29 -33 52 -18 23 -58 77 -89 121 -31 44 -80 105
-110 135 -84 87 -211 137 -405 160 -54 6 -136 16 -183 21 l-85 11 -80 86
c-194 211 -236 247 -357 306 -160 78 -247 97 -478 101 -119 3 -229 -1 -310
-10z m454 -50 c44 -9 81 -16 81 -18 1 -1 7 -12 14 -24 10 -20 13 -21 39 -7 34
17 55 17 112 0 67 -21 137 -63 208 -124 69 -60 77 -78 32 -68 -28 5 -30 4 -20
-14 12 -23 30 -35 30 -21 0 19 39 12 79 -13 45 -29 103 -136 73 -136 -4 0 -12
4 -17 9 -16 15 -85 25 -85 12 0 -6 4 -11 10 -11 5 0 31 -20 56 -44 38 -37 51
-44 74 -39 15 3 31 0 34 -6 5 -7 -1 -11 -14 -11 -16 0 -20 -4 -16 -15 3 -8 9
-22 12 -30 5 -12 -2 -15 -31 -15 -40 0 -75 -15 -75 -31 0 -7 15 -8 41 -4 32 6
40 4 34 -6 -6 -9 -3 -11 9 -6 10 4 30 10 44 13 l27 7 -22 -25 c-30 -31 -29
-38 4 -38 28 0 73 -35 73 -57 0 -7 4 -13 9 -13 5 0 23 -19 38 -42 16 -24 51
-74 77 -111 49 -70 116 -242 116 -298 0 -15 6 -29 14 -32 8 -3 19 -32 26 -64
6 -32 18 -80 27 -106 8 -26 13 -51 9 -54 -10 -11 -34 30 -40 69 -4 26 -11 38
-22 38 -12 0 -14 -4 -7 -12 6 -7 13 -26 17 -43 4 -16 15 -41 24 -55 23 -34 41
-96 35 -120 -3 -11 -2 -40 1 -65 7 -41 10 -45 44 -52 l37 -7 -35 -7 c-30 -5
-31 -7 -8 -8 35 -1 58 -26 58 -59 -2 -67 -20 -231 -30 -265 -9 -31 -14 -36
-25 -27 -15 12 -20 0 -25 -55 -5 -71 -4 -90 8 -87 20 4 13 -32 -13 -68 -16
-22 -21 -37 -15 -45 6 -7 4 -19 -7 -35 -9 -13 -19 -50 -22 -83 -4 -39 -11 -62
-20 -65 -8 -3 -11 0 -8 5 8 12 10 90 3 130 -3 23 0 35 10 41 10 6 16 29 18 75
2 39 10 77 20 91 10 16 12 27 6 31 -6 4 -8 26 -4 53 3 26 6 85 7 131 2 82 1
85 -44 165 -31 55 -50 80 -61 78 -21 -3 -51 38 -38 53 5 6 6 24 2 39 -10 38
-65 58 -121 43 -34 -9 -43 -8 -59 6 -22 21 -41 21 -66 2 -10 -8 -22 -12 -26
-10 -8 5 -72 -26 -95 -45 -18 -15 -49 6 -77 51 -18 29 -18 33 -4 41 25 14 19
26 -20 43 -30 12 -34 18 -25 29 10 12 7 15 -21 18 -24 2 -34 8 -36 23 -2 15 6
23 35 32 34 11 39 10 52 -7 7 -11 17 -20 22 -20 12 0 11 47 -1 55 -25 15 -2
27 30 15 3 -1 8 -2 11 -2 4 1 5 -6 3 -16 -8 -31 25 -41 91 -27 33 7 71 19 85
26 22 12 25 19 19 46 -3 17 -15 45 -25 62 -10 17 -37 60 -58 96 l-39 65 -53 0
c-44 0 -54 -3 -59 -21 -9 -27 -30 -18 -30 13 0 14 -8 35 -19 47 -13 14 -16 25
-9 33 5 7 10 25 11 41 1 21 -3 27 -18 27 -10 0 -22 5 -25 10 -15 24 -27 -4
-20 -44 4 -22 8 -51 9 -64 0 -12 6 -23 11 -24 6 -1 16 -7 23 -15 20 -19 -50
-87 -83 -80 -14 2 -22 0 -19 -5 3 -5 -12 -16 -35 -26 -22 -9 -42 -25 -45 -34
-5 -21 -2 -22 26 -7 19 10 20 9 15 -10 -9 -35 9 -24 19 12 8 25 16 33 38 35
25 3 27 1 24 -29 -4 -46 -52 -71 -138 -72 -43 0 -71 -5 -82 -15 -16 -14 -18
-13 -18 2 0 13 -5 16 -22 11 -63 -18 -61 -18 -54 0 4 13 2 16 -9 11 -50 -20
-48 -20 -34 2 16 26 91 41 113 23 11 -9 15 -8 20 5 4 11 0 18 -14 21 -23 6
-24 11 -10 47 7 21 6 26 -5 26 -17 0 -20 26 -4 36 6 3 8 17 5 30 -5 18 1 29
29 51 19 15 35 37 35 48 0 18 -2 17 -23 -7 -13 -15 -36 -32 -50 -37 -19 -7
-25 -15 -20 -27 5 -13 2 -15 -15 -9 -18 5 -22 2 -22 -14 0 -12 4 -21 8 -21 4
0 16 -14 26 -31 13 -23 15 -34 7 -42 -8 -8 -11 -8 -11 1 0 7 -6 12 -14 12 -8
0 -18 9 -21 20 -11 34 -32 22 -44 -25 -6 -25 -16 -45 -21 -45 -6 0 -10 -5 -10
-11 0 -8 4 -8 15 1 8 6 19 9 25 5 5 -3 10 0 10 8 0 19 28 42 38 32 4 -4 1 -10
-5 -12 -7 -3 -13 -9 -13 -14 0 -19 -42 -51 -61 -46 -10 3 -19 1 -19 -4 0 -5 7
-9 15 -9 21 0 18 -11 -10 -39 -14 -13 -25 -27 -25 -32 0 -5 -9 -4 -20 3 -17
11 -22 10 -30 -2 -5 -8 -6 -18 -4 -22 3 -5 -3 -11 -13 -15 -10 -3 -30 -19 -46
-35 -15 -15 -38 -28 -51 -28 -38 0 -86 -12 -86 -21 0 -5 15 -9 34 -9 26 0 33
-4 32 -17 -1 -15 6 -18 45 -15 34 2 50 -2 60 -15 13 -15 12 -16 -6 -9 -11 5
-27 9 -35 11 -8 1 -9 0 -2 -2 29 -10 -10 -42 -53 -43 -19 0 -35 -7 -43 -20
-14 -23 -13 -24 52 -35 37 -6 38 -5 33 17 -8 31 21 58 56 51 31 -6 46 -39 49
-108 3 -54 -15 -75 -20 -22 -6 81 -10 99 -20 109 -17 17 -35 -2 -29 -31 5 -22
-1 -32 -29 -55 -28 -22 -38 -25 -49 -16 -20 17 -45 -4 -45 -37 0 -21 4 -24 20
-20 17 4 20 2 15 -14 -4 -11 -2 -19 5 -19 13 0 4 -58 -11 -74 -5 -6 -9 -18 -9
-28 0 -10 -5 -27 -12 -38 -7 -10 -9 -22 -5 -26 12 -13 72 11 75 30 3 14 0 17
-12 13 -19 -8 -20 0 -1 33 17 30 19 102 3 118 -9 9 -7 16 7 32 24 26 45 10 45
-35 0 -24 4 -31 18 -31 24 1 27 -18 2 -22 -11 -2 -20 -10 -20 -17 0 -8 -9 -20
-21 -29 -15 -10 -19 -20 -14 -36 l7 -22 24 23 c13 12 21 27 17 33 -3 6 2 3 12
-6 14 -13 16 -20 7 -31 -7 -8 -9 -17 -5 -20 3 -4 -2 -9 -11 -13 -9 -3 -16 -15
-16 -25 0 -12 -7 -19 -20 -19 -12 0 -31 -11 -44 -25 -44 -47 -131 -61 -154
-25 -10 16 -10 24 0 40 7 11 16 20 21 20 4 0 15 15 23 33 8 17 18 39 23 47 30
50 39 85 28 105 -6 11 -11 23 -10 26 1 3 -5 6 -13 6 -7 0 -14 -7 -14 -14 0 -8
5 -11 10 -8 6 3 10 -1 10 -9 0 -10 -9 -16 -25 -16 -28 0 -34 -17 -7 -22 12 -3
5 -11 -26 -26 -23 -13 -48 -34 -54 -47 -6 -14 -15 -25 -19 -25 -12 0 -63 24
-69 32 -3 4 -18 9 -34 12 -15 3 -34 13 -41 22 -7 10 -19 15 -29 11 -10 -4 -28
4 -49 22 -17 15 -42 33 -54 40 -30 15 -29 29 1 41 28 10 43 30 24 30 -23 0
-68 -24 -68 -36 0 -6 -20 -11 -45 -12 -51 0 -53 3 -25 38 11 14 20 29 20 34 0
13 49 56 64 56 13 0 36 41 36 65 0 18 50 17 65 -2 8 -9 12 -9 21 1 9 9 6 17
-12 33 -14 13 -26 17 -30 11 -4 -5 -16 0 -29 12 -29 28 -49 17 -41 -21 3 -16
1 -29 -4 -29 -6 0 -10 5 -10 12 0 15 -30 48 -45 48 -6 0 -11 -10 -11 -22 1
-23 -40 -58 -130 -112 -50 -30 -54 -33 -76 -35 -9 -1 -9 -4 -1 -12 13 -13 -5
-77 -37 -131 -22 -38 -33 -48 -26 -25 16 49 16 67 1 67 -9 0 -14 -3 -11 -8 7
-12 -23 -74 -34 -67 -5 3 -10 0 -10 -7 0 -8 -9 -31 -20 -53 -11 -22 -18 -47
-15 -56 3 -10 2 -20 -4 -23 -5 -3 -7 -16 -4 -29 5 -21 4 -21 -16 3 -28 35 -43
137 -27 187 6 18 4 22 -8 17 -10 -4 -17 2 -21 18 -28 124 -40 200 -33 204 4 3
8 1 8 -5 0 -6 6 -8 14 -5 8 3 16 -3 19 -15 3 -12 12 -21 21 -21 18 0 21 11 7
26 -14 15 -23 82 -11 89 10 6 3 81 -10 100 -15 23 -3 181 19 250 34 106 53
145 75 161 20 14 20 14 -4 14 l-25 1 27 24 28 24 -28 13 c-30 15 -44 58 -18
58 9 0 25 20 36 44 24 55 25 56 1 56 -14 0 -17 -6 -13 -25 4 -25 -11 -35 -23
-15 -12 19 -27 -2 -20 -27 5 -22 3 -25 -15 -20 -17 4 -19 3 -10 -8 8 -9 8 -15
0 -20 -17 -11 -11 -23 17 -29 23 -7 25 -9 11 -23 -14 -13 -19 -13 -52 2 -20
10 -43 27 -52 39 -8 11 -17 20 -19 19 -13 -7 -23 -1 -28 17 -5 20 -37 29 -37
10 0 -5 7 -10 15 -10 8 0 15 -7 15 -15 0 -11 -11 -15 -40 -15 -41 0 -69 12
-101 42 -16 16 -17 21 -4 50 7 18 34 50 59 71 29 24 43 43 40 52 -4 10 0 15
15 15 25 0 36 21 44 81 14 109 139 263 275 340 31 18 67 42 80 54 33 33 132
63 299 91 81 13 198 35 258 48 132 28 232 31 339 11z m807 -575 c21 -12 27
-42 6 -34 -13 5 -41 44 -31 44 3 0 14 -5 25 -10z m-2222 -283 c1 -5 -3 -5 -9
-2 -5 3 -10 16 -9 28 0 21 1 21 9 2 5 -11 9 -24 9 -28z m261 -135 c0 -13 -12
-22 -22 -16 -10 6 -1 24 13 24 5 0 9 -4 9 -8z m1636 -164 c4 -6 2 -14 -5 -16
-9 -3 -9 -7 0 -18 16 -20 27 -17 31 7 3 19 5 19 36 -9 27 -25 31 -33 26 -61
-5 -23 -16 -36 -40 -47 -19 -9 -34 -20 -34 -24 0 -4 -11 -12 -25 -18 -21 -10
-29 -8 -50 10 -33 29 -32 34 10 34 24 0 34 -4 31 -12 -3 -8 1 -11 10 -7 7 3
15 8 15 12 11 58 0 78 -28 50 -14 -14 -25 81 -11 99 13 15 25 15 34 0z m-1816
-18 c0 -5 -2 -10 -4 -10 -3 0 -8 5 -11 10 -3 6 -1 10 4 10 6 0 11 -4 11 -10z
m0 -75 c0 -25 4 -51 10 -58 5 -7 22 -28 38 -47 20 -24 31 -51 36 -87 6 -50 -6
-75 -17 -34 -3 12 -17 21 -41 25 -42 8 -51 22 -60 97 -7 57 8 149 25 149 5 0
9 -20 9 -45z m2025 -5 c-3 -5 -12 -10 -19 -10 -8 0 -17 -16 -20 -35 -7 -34
-15 -42 -29 -28 -4 3 -2 12 4 19 7 8 7 14 -1 19 -15 9 -12 25 5 25 8 0 15 5
15 10 0 6 12 10 26 10 14 0 23 -4 19 -10z m45 -30 c-13 -25 -50 -46 -50 -29 0
17 30 49 47 49 11 0 11 -5 3 -20z m-412 -91 c-10 -5 -18 -15 -18 -22 0 -7 -14
-12 -30 -13 l-31 -1 22 23 c13 14 34 24 48 24 23 -1 24 -2 9 -11z m-1538 -43
c0 -8 -4 -17 -9 -20 -10 -7 -23 19 -14 28 11 11 23 6 23 -8z m1155 4 c-3 -5
-11 -10 -16 -10 -6 0 -7 5 -4 10 3 6 11 10 16 10 6 0 7 -4 4 -10z m284 -19
c17 -11 6 -17 -49 -25 l-45 -7 25 20 c27 22 47 26 69 12z m-1423 -93 c-16 -11
-19 -2 -11 29 l8 28 7 -25 c3 -14 2 -28 -4 -32z m1284 -39 c0 -5 -9 -9 -20 -9
-22 0 -27 16 -7 23 15 5 27 -1 27 -14z m295 -19 c-3 -5 -11 -10 -16 -10 -6 0
-7 5 -4 10 3 6 11 10 16 10 6 0 7 -4 4 -10z m-180 -34 c-2 -37 -9 -40 -47 -20
l-33 17 38 11 c23 6 35 15 30 20 -4 5 -3 7 2 3 6 -3 10 -17 10 -31z m75 18 c0
-2 -7 -4 -15 -4 -8 0 -15 4 -15 10 0 5 7 7 15 4 8 -4 15 -8 15 -10z m141 -64
c-8 -4 -5 -13 9 -25 11 -10 20 -24 20 -32 0 -8 5 -11 10 -8 6 3 10 15 10 26 0
10 5 19 11 19 5 0 8 -4 4 -9 -3 -5 -1 -12 5 -16 5 -3 10 2 10 13 0 10 11 29
24 41 l24 23 7 -30 c5 -24 10 -29 27 -24 15 4 19 1 14 -9 -3 -8 -9 -22 -12
-31 -4 -10 -12 -18 -20 -18 -7 0 -19 -8 -26 -18 -27 -37 -40 -37 -33 2 6 29 4
36 -9 36 -8 0 -23 -15 -33 -32 -14 -28 -18 -30 -21 -14 -2 11 -15 38 -29 59
-13 22 -27 55 -30 74 l-6 35 27 -27 c18 -18 24 -30 17 -35z m1478 13 c22 -26
41 -52 41 -59 0 -21 -24 -22 -48 -3 -13 10 -31 16 -40 13 -11 -4 -9 2 7 16 21
18 22 23 10 31 -19 12 -46 11 -54 -1 -9 -15 -25 -12 -25 4 0 20 28 46 49 46
10 0 37 -21 60 -47z m-1805 12 c6 -10 17 -25 24 -33 19 -21 14 -41 -10 -51
-82 -32 -108 -46 -108 -59 0 -9 6 -12 18 -7 20 8 20 8 55 6 15 0 27 -6 27 -12
0 -8 -11 -9 -32 -5 -24 5 -37 1 -55 -16 l-23 -21 -1 29 c-2 59 17 118 45 136
8 5 7 8 -2 8 -9 0 -8 7 5 25 21 28 41 29 57 0z m762 4 c12 -12 20 -27 17 -35
-3 -8 10 -20 36 -31 23 -10 41 -25 42 -33 0 -10 2 -11 6 -2 2 6 14 12 25 12
21 0 21 -24 0 -26 -7 -1 -18 -2 -24 -3 -8 -1 -3 -10 10 -21 17 -14 23 -28 20
-52 l-3 -32 -34 30 c-22 20 -33 39 -33 57 0 20 -5 27 -20 27 -16 0 -19 -5 -14
-25 10 -39 -29 -50 -111 -31 -27 6 -33 5 -33 -8 0 -9 -8 -16 -19 -16 -11 0
-23 -4 -26 -10 -3 -5 -13 -10 -22 -10 -9 0 -23 -8 -32 -19 -11 -12 -29 -18
-58 -18 -23 0 -40 3 -38 8 3 4 1 10 -5 14 -15 9 -12 25 4 25 7 0 19 7 26 15 7
8 17 15 23 15 8 0 7 -4 0 -11 -9 -9 -8 -16 3 -27 14 -13 17 -13 31 0 19 20 9
78 -14 78 -12 0 -13 6 -8 28 4 15 7 37 7 49 -2 28 1 29 71 37 53 7 57 6 57
-12 0 -11 6 -22 13 -25 10 -4 10 -7 0 -18 -7 -7 -13 -22 -13 -34 0 -17 7 -21
40 -22 22 -1 40 2 40 6 0 5 -16 29 -35 54 -37 49 -38 73 -2 80 43 8 51 7 73
-14z m789 1 c3 -5 -1 -10 -9 -10 -9 0 -16 5 -16 10 0 6 4 10 9 10 6 0 13 -4
16 -10z m80 -50 c-3 -5 -15 -10 -26 -10 -10 0 -19 5 -19 10 0 6 12 10 26 10
14 0 23 -4 19 -10z m-1480 -10 c3 -5 -1 -10 -9 -10 -8 0 -18 5 -21 10 -3 6 1
10 9 10 8 0 18 -4 21 -10z m164 -72 c-8 -14 -14 -18 -17 -10 -2 6 -8 10 -13 6
-5 -3 -9 -1 -9 5 0 8 16 16 43 20 4 0 2 -9 -4 -21z m1531 11 c0 -11 -21 -11
-39 0 -9 6 -5 9 13 9 14 0 26 -4 26 -9z m-2603 -40 c38 -33 163 -101 221 -120
31 -10 44 -29 20 -29 -6 0 -3 -7 8 -15 18 -14 18 -14 -9 -15 -23 0 -27 3 -22
19 5 16 -1 21 -27 26 -38 9 -63 22 -97 53 -14 12 -31 22 -38 22 -6 0 -24 11
-40 24 -15 12 -34 21 -41 18 -8 -2 -34 1 -58 8 -32 9 -48 10 -56 2 -11 -11
-38 -5 -38 9 0 8 59 14 127 14 17 0 39 -7 50 -16z m-179 -41 c2 -9 -4 -18 -13
-21 -11 -5 -15 0 -15 19 0 28 23 29 28 2z m2612 1 c0 -6 -4 -7 -10 -4 -5 3
-10 11 -10 16 0 6 5 7 10 4 6 -3 10 -11 10 -16z m-2050 -19 c-9 -17 -30 -28
-30 -16 0 16 15 36 26 36 12 0 12 -4 4 -20z m1065 -4 c17 4 26 0 34 -14 19
-36 -24 -46 -54 -12 -10 11 -24 20 -32 20 -14 0 -17 12 -7 23 4 3 13 0 21 -8
9 -9 24 -13 38 -9z m943 -8 c28 -14 28 -21 -3 -38 -23 -12 -27 -12 -41 8 -8
12 -22 22 -30 22 -15 0 -19 12 -8 23 8 8 50 0 82 -15z m66 6 c9 -3 14 -10 11
-15 -7 -10 -35 0 -35 12 0 11 3 11 24 3z m-1098 -28 c3 -8 15 -16 26 -19 30
-8 11 -28 -20 -21 -52 11 -54 12 -42 34 12 23 28 26 36 6z m-1452 -23 c-9 -36
-13 -43 -26 -43 -6 0 -8 12 -4 30 3 17 2 30 -3 30 -17 0 -30 -27 -24 -49 5
-21 10 -23 50 -17 39 5 46 3 50 -14 3 -11 21 -29 39 -41 45 -27 44 -46 -1 -41
-28 3 -35 1 -35 -13 0 -10 5 -15 14 -12 11 4 11 1 2 -19 -13 -27 -24 -31 -32
-9 -8 19 -44 20 -44 1 0 -7 7 -20 16 -27 15 -12 15 -14 -5 -19 -12 -3 -21 -7
-20 -10 1 -3 -3 -15 -9 -27 -7 -12 -14 -39 -17 -60 -9 -60 -12 -64 -36 -54
-28 10 -34 51 -8 51 21 0 35 18 23 30 -5 4 -24 11 -42 15 -32 7 -33 6 -22 -15
11 -20 10 -21 -12 -15 -39 12 -43 11 -41 -12 2 -17 -2 -23 -16 -23 -25 0 -39
63 -33 148 3 40 0 67 -8 77 -14 17 1 75 25 95 23 19 31 -17 11 -50 -9 -16 -13
-35 -10 -44 9 -23 21 -11 28 30 6 27 14 38 37 46 16 5 29 14 29 19 0 4 -7 6
-16 2 -12 -4 -15 -1 -12 13 2 11 13 20 26 22 12 2 22 10 22 18 0 10 14 14 55
14 55 0 55 0 49 -27z m166 17 c0 -5 -7 -7 -15 -4 -8 4 -15 8 -15 10 0 2 7 4
15 4 8 0 15 -4 15 -10z m273 -7 c-11 -31 -43 -44 -43 -18 0 7 8 19 18 24 25
15 32 13 25 -6z m-613 -8 c0 -8 -7 -15 -16 -15 -14 0 -14 3 -4 15 7 8 14 15
16 15 2 0 4 -7 4 -15z m1195 -44 c0 -19 -5 -39 -11 -45 -6 -6 -14 -23 -17 -38
-7 -28 -45 -47 -66 -33 -16 9 13 59 49 85 31 22 42 54 15 44 -15 -6 -21 7 -8
20 18 17 38 -1 38 -33z m1590 -2 c17 -16 35 -29 39 -29 19 0 136 -61 136 -71
0 -6 16 -29 35 -52 38 -45 43 -57 20 -57 -8 0 -15 4 -15 9 0 5 -12 16 -26 26
-24 15 -27 15 -44 0 -10 -9 -24 -14 -29 -10 -19 11 -12 32 12 39 20 6 21 7 4
17 -9 6 -27 7 -40 4 -16 -5 -18 -4 -8 3 12 8 9 15 -15 36 -16 14 -33 26 -39
26 -20 2 -100 67 -103 84 -5 26 34 12 73 -25z m-2460 19 c26 -12 34 -28 13
-28 -15 1 -48 24 -48 34 0 9 5 8 35 -6z m1487 -5 c-6 -3 -9 -10 -6 -15 4 -6
-1 -17 -12 -25 -10 -7 -19 -21 -19 -31 0 -13 -11 -17 -57 -19 -81 -3 -86 19
-10 54 31 14 61 25 65 24 4 -1 15 6 24 14 8 9 18 13 22 9 3 -4 0 -9 -7 -11z
m-170 -25 c-7 -7 -12 -8 -12 -2 0 14 12 26 19 19 2 -3 -1 -11 -7 -17z m1049
-35 c70 -78 93 -113 81 -125 -9 -9 -12 -7 -12 9 0 13 -8 24 -20 28 -21 7 -108
125 -92 125 6 0 25 -17 43 -37z m-1399 1 c-4 -24 -45 -54 -57 -42 -3 3 0 19 6
36 8 23 17 32 34 32 19 0 21 -4 17 -26z m148 16 c0 -13 -28 -25 -38 -16 -3 4
0 11 8 16 20 13 30 12 30 0z m88 -10 c12 -12 22 -25 22 -30 0 -17 -26 -11 -46
11 -10 12 -28 25 -39 30 -17 6 -15 8 11 8 17 1 39 -8 52 -19z m-1148 6 c0 -3
-4 -8 -10 -11 -5 -3 -10 -1 -10 4 0 6 5 11 10 11 6 0 10 -2 10 -4z m1244 -11
c3 -8 0 -15 -6 -15 -7 0 -3 -7 8 -15 18 -14 16 -15 -22 -13 -30 1 -40 6 -37
15 3 7 11 13 19 13 8 0 14 7 14 15 0 8 4 15 9 15 5 0 11 -7 15 -15z m-1131
-33 c-23 -2 -30 -7 -27 -20 6 -24 -11 -46 -30 -39 -9 4 -16 15 -16 26 0 11 -9
21 -22 24 -12 4 -20 9 -17 11 3 3 19 2 35 -3 25 -7 33 -5 42 10 10 16 15 17
39 6 l28 -12 -32 -3z m-643 8 c0 -5 -4 -10 -10 -10 -5 0 -10 5 -10 10 0 6 5
10 10 10 6 0 10 -4 10 -10z m1342 -45 c-5 -16 -11 -25 -14 -20 -6 11 10 61 17
53 2 -2 1 -17 -3 -33z m318 -35 c-11 -15 -16 -31 -12 -35 4 -4 1 -6 -7 -3 -22
7 -39 39 -23 45 6 3 12 15 12 27 0 34 13 40 32 16 17 -21 17 -23 -2 -50z
m-479 17 c-11 -12 -23 -18 -26 -15 -9 9 27 48 38 41 5 -3 0 -15 -12 -26z m407
13 c-7 -10 -14 -18 -15 -16 -6 6 9 36 18 36 5 0 4 -9 -3 -20z m-1051 -6 c-3
-3 -12 -4 -19 -1 -8 3 -5 6 6 6 11 1 17 -2 13 -5z m553 -13 c0 -10 7 -24 15
-31 10 -9 15 -9 15 -1 0 6 9 11 20 11 13 0 20 -7 20 -19 0 -11 7 -26 15 -35
15 -15 20 -36 9 -36 -4 0 -13 8 -20 18 -10 14 -15 15 -25 5 -7 -7 -22 -13 -33
-13 -20 -1 -20 -1 -2 -15 10 -8 24 -16 30 -18 6 -2 8 -8 4 -12 -4 -4 -14 -2
-23 5 -13 10 -15 9 -15 -10 0 -15 -5 -20 -17 -18 -12 2 -17 15 -19 46 -1 24
-4 44 -6 45 -44 23 -63 39 -61 54 1 10 -4 21 -10 26 -7 5 6 7 31 5 23 -2 42 0
42 4 0 5 7 8 15 8 8 0 15 -8 15 -19z m283 -27 c-4 -10 4 -14 33 -15 33 0 36
-2 18 -10 -11 -6 -25 -24 -31 -40 -14 -36 3 -39 19 -4 13 28 26 32 34 10 4 -9
18 -22 33 -30 l26 -13 -25 -10 c-20 -8 -75 -9 -75 -2 0 6 -87 5 -91 -1 -7 -12
10 -18 81 -28 37 -6 72 -14 77 -19 5 -5 -30 -12 -82 -18 -84 -8 -91 -8 -87 8
3 10 -2 23 -10 29 -10 9 -11 14 -3 19 8 5 7 12 -4 23 -22 21 -20 40 2 33 29
-10 76 38 68 69 -5 19 -3 23 8 19 8 -3 12 -12 9 -20z m1598 -27 c8 -7 24 -24
33 -40 10 -15 30 -30 43 -33 18 -5 21 -9 12 -15 -19 -11 3 -33 34 -34 13 -1
28 -4 34 -8 7 -4 14 2 19 15 4 15 2 24 -6 26 -16 6 -60 52 -60 63 0 6 24 7 62
0 3 0 9 -14 13 -31 4 -16 14 -34 22 -39 20 -11 9 -46 -11 -38 -8 3 -20 -1 -27
-9 -9 -11 -15 -12 -26 -3 -11 10 -12 8 -5 -12 5 -13 19 -28 31 -34 12 -5 24
-19 27 -30 3 -12 15 -25 26 -30 30 -14 33 -32 9 -40 -30 -9 -61 3 -61 24 0 10
-9 26 -20 36 -11 10 -20 24 -20 31 0 7 -3 14 -7 16 -16 6 -143 156 -143 167 0
6 -5 11 -11 11 -5 0 -7 5 -4 10 8 13 16 12 36 -3z m-2051 -17 c0 -5 -4 -10
-10 -10 -5 0 -10 5 -10 10 0 6 5 10 10 10 6 0 10 -4 10 -10z m840 -19 c0 -5
-7 -11 -15 -15 -9 -3 -15 0 -15 9 0 8 7 15 15 15 8 0 15 -4 15 -9z m-520 -5
c0 -2 -7 -7 -16 -10 -8 -3 -12 -2 -9 4 6 10 25 14 25 6z m-790 -21 c-7 -8 -18
-15 -24 -15 -6 0 -2 7 8 15 25 19 32 19 16 0z m598 -23 c2 -7 -3 -12 -12 -12
-9 0 -16 7 -16 16 0 17 22 14 28 -4z m181 2 c9 -8 -9 -16 -34 -16 -30 0 -40 6
-30 21 5 10 52 5 64 -5z m-378 -7 c-1 -12 -15 -9 -19 4 -3 6 1 10 8 8 6 -3 11
-8 11 -12z m-481 -27 c0 -5 -5 -10 -11 -10 -5 0 -7 5 -4 10 3 6 8 10 11 10 2
0 4 -4 4 -10z m1183 4 c11 -11 -3 -24 -18 -18 -8 4 -12 10 -9 15 6 11 18 12
27 3z m-548 -24 c3 -5 -3 -10 -15 -10 -12 0 -18 5 -15 10 3 6 10 10 15 10 5 0
12 -4 15 -10z m55 -26 c0 -17 -22 -14 -28 4 -2 7 3 12 12 12 9 0 16 -7 16 -16z
m210 -4 c0 -5 -4 -10 -10 -10 -5 0 -10 5 -10 10 0 6 5 10 10 10 6 0 10 -4 10
-10z"/>
<path d="M2335 3651 c-7 -12 12 -24 25 -16 11 7 4 25 -10 25 -5 0 -11 -4 -15
-9z"/>
<path d="M1920 3550 c-20 -12 -5 -24 16 -12 9 5 12 12 7 15 -5 3 -15 2 -23 -3z"/>
<path d="M1950 3511 c-25 -7 -25 -7 -3 -13 12 -3 30 0 40 8 21 15 6 17 -37 5z"/>
<path d="M2388 3504 c30 -21 14 -54 -28 -54 -15 0 -36 -3 -44 -6 -15 -6 -15
-8 1 -19 12 -9 22 -10 30 -4 6 6 17 9 25 8 33 -4 46 3 53 28 5 21 2 32 -15 45
-12 10 -27 18 -33 18 -6 0 -1 -7 11 -16z"/>
<path d="M2435 3510 c3 -5 11 -10 16 -10 6 0 7 5 4 10 -3 6 -11 10 -16 10 -6
0 -7 -4 -4 -10z"/>
<path d="M2873 3485 c-13 -12 -23 -25 -23 -29 0 -11 35 -7 48 6 13 13 17 49 5
47 -5 -1 -18 -11 -30 -24z"/>
<path d="M2935 3450 c3 -5 10 -10 16 -10 5 0 9 5 9 10 0 6 -7 10 -16 10 -8 0
-12 -4 -9 -10z"/>
<path d="M2710 3392 c0 -16 -10 -41 -21 -56 -28 -35 -20 -41 14 -12 28 24 38
78 17 91 -6 4 -10 -6 -10 -23z"/>
<path d="M2871 3404 c0 -11 3 -14 6 -6 3 7 2 16 -1 19 -3 4 -6 -2 -5 -13z"/>
<path d="M2205 3389 c-11 -17 1 -21 15 -4 8 9 8 15 2 15 -6 0 -14 -5 -17 -11z"/>
<path d="M2980 3370 c0 -5 -10 -12 -23 -15 -19 -5 -56 -60 -46 -69 2 -2 25 18
51 45 28 29 42 49 33 49 -8 0 -15 -4 -15 -10z"/>
<path d="M1780 3340 c0 -5 9 -10 20 -10 11 0 20 5 20 10 0 6 -9 10 -20 10 -11
0 -20 -4 -20 -10z"/>
<path d="M2206 3325 c-3 -9 -6 -26 -5 -38 0 -12 3 -16 6 -9 2 6 13 12 24 12
15 0 17 4 10 22 -10 28 -27 34 -35 13z"/>
<path d="M2275 3330 c-3 -5 2 -21 11 -35 15 -23 13 -30 -11 -25 -5 1 -4 -4 3
-11 10 -11 15 -10 28 3 14 14 14 18 0 47 -18 33 -22 36 -31 21z"/>
<path d="M2699 3286 l-26 -22 26 -12 c27 -13 61 -15 85 -6 26 10 18 24 -14 24
-19 0 -30 5 -30 14 0 25 -14 25 -41 2z"/>
<path d="M1840 3290 c-11 -7 -7 -10 18 -10 20 0 31 4 27 10 -8 13 -26 13 -45
0z"/>
<path d="M2056 3270 c-10 -10 -16 -24 -14 -31 3 -8 9 -7 20 5 23 22 70 20 98
-4 13 -11 29 -20 37 -20 22 0 -7 38 -43 55 -42 20 -75 18 -98 -5z"/>
<path d="M2352 3240 c-17 -28 -15 -37 9 -43 19 -5 20 -7 6 -27 -23 -33 -60
-56 -65 -42 -5 17 -32 15 -32 -2 0 -7 16 -28 36 -47 39 -37 69 -87 59 -97 -4
-4 -11 2 -18 13 -6 11 -31 41 -55 67 -34 36 -48 45 -58 37 -9 -7 -18 -7 -32 2
-12 8 -29 9 -48 4 -21 -6 -24 -9 -11 -12 9 -3 17 -13 17 -24 0 -23 5 -23 -66
2 -32 12 -88 26 -124 31 -58 9 -72 8 -125 -11 -33 -12 -71 -25 -85 -27 -36 -8
-72 -26 -93 -46 -10 -10 -26 -18 -36 -18 -10 0 -26 -9 -36 -20 -19 -21 -65
-28 -65 -10 0 6 -4 10 -10 10 -5 0 -10 -7 -10 -15 0 -22 -28 -18 -35 5 -3 11
-12 20 -18 20 -7 0 -22 3 -35 6 -25 7 -27 -9 -5 -33 16 -18 36 -16 29 2 -3 8
-1 15 4 15 6 0 10 -6 10 -14 0 -8 25 -28 55 -45 30 -17 55 -38 55 -46 0 -8 9
-19 20 -25 30 -16 24 -32 -12 -28 -18 2 -33 -2 -35 -10 -3 -9 7 -11 37 -9 33
3 40 0 38 -12 -3 -11 -14 -16 -36 -15 -29 2 -37 -5 -33 -28 0 -5 -9 -8 -21 -8
l-22 0 21 -22 22 -21 21 24 21 24 -3 -24 c-2 -19 -13 -28 -45 -39 -42 -13 -58
-32 -28 -32 8 0 15 -6 15 -14 0 -8 6 -16 14 -19 21 -8 8 -57 -15 -57 -5 0 -4
9 3 20 18 28 3 35 -22 10 -16 -16 -19 -25 -10 -34 14 -17 2 -46 -16 -39 -7 3
-16 -2 -20 -10 -3 -9 -14 -13 -27 -10 -16 3 -18 2 -8 -5 9 -7 10 -12 2 -16
-17 -11 -13 -26 7 -26 10 0 27 -6 38 -14 19 -13 23 -11 63 41 41 53 44 55 79
49 24 -5 49 -19 70 -41 32 -35 55 -42 80 -26 14 9 -1 26 -41 46 -12 6 -24 19
-26 30 -2 11 -11 27 -20 35 -10 8 -20 23 -24 33 -3 9 -11 17 -17 17 -5 0 -10
5 -10 10 0 6 6 10 13 9 27 -3 35 2 41 26 6 22 9 24 26 15 16 -9 18 -8 13 6 -3
9 -13 14 -25 11 -11 -3 -22 2 -28 14 -6 10 -19 19 -30 19 -24 0 -37 20 -19 31
27 17 57 10 61 -13 2 -14 14 -25 33 -31 36 -12 46 -25 39 -52 -3 -14 6 -34 25
-59 34 -43 37 -52 19 -59 -17 -7 49 -67 73 -67 10 0 24 -9 31 -20 9 -14 24
-20 46 -20 47 0 36 23 -16 33 -25 5 -40 12 -36 19 4 5 -3 20 -14 32 -65 69
-82 89 -82 98 0 6 20 -6 44 -26 24 -20 49 -36 54 -36 5 0 25 -11 45 -24 32
-22 45 -24 112 -21 42 2 83 9 91 16 13 10 17 10 23 0 6 -9 10 -7 14 8 3 11 17
23 33 27 38 10 46 17 104 86 23 27 32 49 34 83 2 25 7 49 11 53 4 4 5 -2 3
-13 -2 -13 3 -20 12 -20 8 0 16 10 18 23 2 12 9 22 16 22 12 0 16 12 17 53 1
37 18 67 39 67 15 0 20 -5 18 -17 -2 -11 -11 -17 -21 -15 -18 3 -21 -18 -8
-52 5 -14 10 -16 15 -8 4 7 12 10 17 7 5 -4 12 7 15 24 4 18 13 31 22 31 11 0
13 9 9 41 -5 39 -4 40 11 21 15 -18 16 -17 40 29 13 27 30 49 38 49 10 0 11 6
4 25 -8 20 -6 27 5 31 8 4 15 12 15 18 0 7 9 22 21 34 19 21 19 23 2 29 -10 4
-22 13 -26 20 -5 8 -16 12 -25 9 -9 -3 -35 1 -56 8 -51 18 -76 11 -76 -21 0
-15 -5 -23 -12 -20 -14 5 -15 19 -4 55 6 16 3 22 -8 22 -9 0 -16 -7 -16 -15 0
-12 -9 -10 -40 10 -22 14 -41 25 -42 25 -2 0 -9 -9 -16 -20z m34 -27 c-10 -10
-19 5 -10 18 6 11 8 11 12 0 2 -7 1 -15 -2 -18z m204 -53 c0 -16 -13 -17 -40
-3 -18 9 -27 19 -23 28 4 13 9 12 34 -2 16 -10 29 -20 29 -23z m54 -9 c9 -14
-39 -52 -57 -45 -13 5 -17 0 -17 -20 0 -14 -4 -26 -10 -26 -5 0 -10 9 -10 20
0 12 -7 20 -17 20 -15 1 -14 4 5 20 13 10 29 17 37 13 8 -3 18 2 21 11 6 17
39 22 48 7z m-280 -47 c9 -22 -3 -32 -14 -14 -12 19 -12 30 -1 30 5 0 12 -7
15 -16z m171 -23 c3 -5 1 -12 -5 -16 -5 -3 -10 1 -10 9 0 18 6 21 15 7z m-35
-46 c0 -8 -4 -15 -10 -15 -5 0 -10 7 -10 15 0 8 -4 15 -10 15 -5 0 -10 5 -10
10 0 7 6 7 20 0 11 -6 20 -17 20 -25z m70 1 c0 -3 -11 -17 -25 -32 -21 -22
-25 -24 -25 -9 0 10 8 24 18 31 17 13 32 18 32 10z m-90 -55 c0 -5 3 -18 7
-28 6 -17 5 -17 -15 1 -26 22 -28 36 -7 36 8 0 15 -4 15 -9z m-846 -26 c-6
-16 -24 -21 -24 -7 0 11 11 22 21 22 5 0 6 -7 3 -15z m406 -25 c0 -5 -4 -10
-10 -10 -5 0 -10 5 -10 10 0 6 5 10 10 10 6 0 10 -4 10 -10z m345 -10 c3 -5 1
-10 -4 -10 -6 0 -11 5 -11 10 0 6 2 10 4 10 3 0 8 -4 11 -10z m15 -65 c0 -14
-4 -25 -10 -25 -5 0 -10 11 -10 25 0 14 5 25 10 25 6 0 10 -11 10 -25z m-765
-185 c-3 -5 -10 -10 -16 -10 -5 0 -9 5 -9 10 0 6 7 10 16 10 8 0 12 -4 9 -10z
m-150 -200 c-3 -5 -12 -10 -18 -10 -7 0 -6 4 3 10 19 12 23 12 15 0z"/>
<path d="M2631 3244 c0 -11 3 -14 6 -6 3 7 2 16 -1 19 -3 4 -6 -2 -5 -13z"/>
<path d="M2859 3247 c-5 -59 -4 -87 3 -87 4 0 8 -21 8 -47 l0 -48 21 39 c22
42 35 116 20 116 -5 0 -12 -7 -15 -16 -4 -9 -9 -15 -12 -12 -2 3 0 17 5 31 8
21 7 26 -10 30 -10 3 -19 0 -20 -6z"/>
<path d="M1510 3221 c0 -5 6 -11 13 -13 17 -7 38 2 31 13 -7 12 -44 12 -44 0z"/>
<path d="M2305 3220 c3 -5 8 -10 11 -10 2 0 4 5 4 10 0 6 -5 10 -11 10 -5 0
-7 -4 -4 -10z"/>
<path d="M2058 3213 c6 -2 18 -2 25 0 6 3 1 5 -13 5 -14 0 -19 -2 -12 -5z"/>
<path d="M3016 3195 c-23 -36 -20 -42 9 -15 26 24 32 40 16 40 -5 0 -16 -11
-25 -25z"/>
<path d="M2152 3199 c2 -7 10 -15 17 -17 8 -3 12 1 9 9 -2 7 -10 15 -17 17 -8
3 -12 -1 -9 -9z"/>
<path d="M2806 3152 c-9 -26 -14 -64 -12 -82 3 -19 5 -39 5 -44 1 -5 8 -3 16
4 10 8 14 29 14 64 -1 29 1 62 5 73 4 12 3 24 -3 27 -5 3 -17 -15 -25 -42z"/>
<path d="M1215 3170 c3 -5 10 -10 16 -10 5 0 9 5 9 10 0 6 -7 10 -16 10 -8 0
-12 -4 -9 -10z"/>
<path d="M2218 3173 c-21 -5 -23 -24 -6 -41 18 -18 25 -15 24 11 -1 12 3 25 9
29 11 8 1 9 -27 1z"/>
<path d="M2307 3163 c18 -9 36 -13 40 -9 11 10 -18 26 -47 25 -24 0 -23 -1 7
-16z"/>
<path d="M1044 3109 c-3 -6 -1 -16 5 -22 9 -9 14 -8 21 3 9 15 4 30 -10 30 -5
0 -12 -5 -16 -11z"/>
<path d="M2055 3110 c3 -5 15 -10 26 -10 10 0 19 5 19 10 0 6 -12 10 -26 10
-14 0 -23 -4 -19 -10z"/>
<path d="M2943 3098 c-11 -23 -33 -99 -33 -112 0 -4 9 -4 20 -1 23 7 26 -4 8
-24 -11 -11 -10 -14 0 -18 7 -3 19 -11 27 -20 8 -8 15 -10 15 -4 0 26 41 8 71
-31 18 -24 52 -64 76 -90 23 -25 45 -57 48 -71 4 -13 31 -46 60 -72 30 -26 57
-56 60 -66 3 -10 15 -21 26 -24 19 -6 27 -35 9 -35 -5 0 -10 5 -10 12 0 7 -5
5 -12 -4 -7 -9 -22 -18 -32 -20 -25 -4 -33 -28 -10 -28 13 0 15 -3 7 -11 -8
-8 -20 -6 -43 7 -26 16 -32 17 -39 5 -13 -20 -2 -41 21 -41 17 0 18 -2 8 -15
-10 -12 -10 -19 -2 -27 14 -14 75 4 105 30 15 13 22 14 37 4 11 -7 28 -12 39
-12 10 0 21 -7 25 -15 3 -8 11 -15 17 -15 7 0 9 3 6 7 -4 3 2 12 13 20 19 13
19 15 3 41 -10 15 -23 32 -30 37 -6 6 -13 26 -15 45 -2 25 -8 36 -22 38 -46 9
-109 119 -84 149 7 8 5 19 -6 35 -9 12 -16 32 -16 43 0 27 -18 45 -46 45 -17
0 -21 4 -17 21 6 20 -25 59 -47 59 -14 0 -13 -23 2 -38 26 -26 0 -20 -33 8
-19 16 -28 29 -21 30 36 1 -15 34 -84 54 -11 3 -35 21 -53 40 -28 29 -31 37
-22 54 14 27 14 32 -2 32 -8 0 -18 -10 -24 -22z m306 -326 c24 -21 28 -31 19
-40 -8 -8 -8 -15 2 -27 8 -10 9 -15 1 -15 -6 0 -11 3 -11 8 0 4 -14 22 -31 41
-23 24 -33 30 -39 21 -6 -9 -11 -7 -20 10 -11 20 -10 22 4 17 8 -3 18 -2 21 3
10 16 22 12 54 -18z m131 -285 c0 -4 -3 -6 -7 -4 -5 2 -16 7 -26 10 -10 4 -16
11 -12 17 7 11 45 -9 45 -23z"/>
<path d="M2705 3034 c-9 -14 -14 -28 -11 -31 3 -3 8 2 12 11 3 9 12 16 20 16
8 0 14 7 14 15 0 23 -16 18 -35 -11z"/>
<path d="M2860 3000 c0 -5 5 -10 10 -10 6 0 10 5 10 10 0 6 -4 10 -10 10 -5 0
-10 -4 -10 -10z"/>
<path d="M2970 2875 c0 -8 4 -15 10 -15 5 0 7 7 4 15 -4 8 -8 15 -10 15 -2 0
-4 -7 -4 -15z"/>
<path d="M3011 2864 c0 -11 3 -14 6 -6 3 7 2 16 -1 19 -3 4 -6 -2 -5 -13z"/>
<path d="M2587 2773 c-3 -5 -2 -15 2 -22 7 -10 10 -10 16 -1 4 6 3 16 -3 22
-5 5 -12 6 -15 1z"/>
<path d="M2624 2753 c-3 -10 -10 -26 -15 -35 -12 -24 -11 -28 5 -22 9 3 20 -3
28 -15 15 -24 38 -28 38 -6 0 8 14 21 30 30 36 18 39 34 8 34 -13 0 -33 1 -45
1 -14 0 -23 6 -23 15 0 21 -19 19 -26 -2z m36 -33 c0 -5 -5 -10 -11 -10 -5 0
-7 5 -4 10 3 6 8 10 11 10 2 0 4 -4 4 -10z"/>
<path d="M3350 2730 c0 -5 5 -10 10 -10 6 0 10 5 10 10 0 6 -4 10 -10 10 -5 0
-10 -4 -10 -10z"/>
<path d="M2380 2709 c-6 -11 -10 -26 -8 -33 2 -7 10 2 19 20 18 36 7 48 -11
13z"/>
<path d="M1696 2635 c4 -8 12 -15 20 -15 19 0 18 16 -2 24 -22 9 -24 8 -18 -9z"/>
<path d="M3400 2630 c0 -5 5 -10 10 -10 6 0 10 5 10 10 0 6 -4 10 -10 10 -5 0
-10 -4 -10 -10z"/>
<path d="M1730 2594 c0 -18 26 -47 39 -43 8 3 3 13 -13 28 -14 14 -26 20 -26
15z"/>
<path d="M2004 2446 c-10 -8 -16 -18 -12 -22 4 -4 15 -1 25 7 11 9 14 10 9 2
-10 -18 5 -16 29 4 19 15 19 15 1 9 -11 -4 -22 -2 -26 4 -4 6 -13 5 -26 -4z"/>
<path d="M2063 2400 c-13 -5 -23 -14 -23 -20 0 -13 70 -13 90 0 13 9 13 11 0
20 -18 12 -38 12 -67 0z"/>
<path d="M1882 2393 c-15 -6 -6 -23 14 -23 8 0 14 7 14 15 0 15 -6 17 -28 8z"/>
<path d="M2986 2376 c4 -10 19 -16 41 -16 47 0 38 24 -10 28 -30 3 -36 0 -31
-12z"/>
<path d="M1290 2320 c0 -5 7 -10 15 -10 8 0 15 5 15 10 0 6 -7 10 -15 10 -8 0
-15 -4 -15 -10z"/>
<path d="M1860 2281 c0 -5 -10 -11 -22 -14 -12 -4 -19 -9 -16 -12 10 -11 58 7
58 21 0 8 -4 14 -10 14 -5 0 -10 -4 -10 -9z"/>
<path d="M1234 2218 c3 -13 6 -29 6 -36 0 -10 4 -9 16 3 12 11 13 19 5 29 -6
7 -8 16 -4 19 3 4 -2 7 -11 7 -14 0 -17 -5 -12 -22z"/>
<path d="M1410 2220 c-12 -7 -12 -12 -3 -21 10 -10 14 -9 19 5 8 22 2 27 -16
16z"/>
<path d="M1890 2210 c0 -5 4 -10 9 -10 6 0 13 5 16 10 3 6 -1 10 -9 10 -9 0
-16 -4 -16 -10z"/>
<path d="M1982 2138 c-8 -8 -9 -15 0 -25 9 -11 13 -10 24 4 7 10 14 21 14 26
0 11 -25 8 -38 -5z"/>
<path d="M1980 2050 c-20 -12 -5 -24 16 -12 9 5 12 12 7 15 -5 3 -15 2 -23 -3z"/>
<path d="M2155 1920 c-3 -5 1 -10 9 -10 8 0 18 5 21 10 3 6 -1 10 -9 10 -8 0
-18 -4 -21 -10z"/>
<path d="M3551 1904 c6 -7 7 -18 3 -25 -4 -7 -2 -10 5 -8 7 3 12 8 12 12 -1 4
-1 13 -1 20 0 8 -7 14 -15 14 -11 0 -12 -4 -4 -13z"/>
<path d="M2450 2199 c0 -5 5 -7 10 -4 6 3 10 8 10 11 0 2 -4 4 -10 4 -5 0 -10
-5 -10 -11z"/>
<path d="M3210 2211 c0 -5 7 -11 14 -14 10 -4 13 -1 9 9 -6 15 -23 19 -23 5z"/>
<path d="M3075 2090 c3 -5 13 -10 21 -10 8 0 12 5 9 10 -3 6 -13 10 -21 10 -8
0 -12 -4 -9 -10z"/>
<path d="M1450 1770 c0 -5 7 -10 16 -10 8 0 12 5 9 10 -3 6 -10 10 -16 10 -5
0 -9 -4 -9 -10z"/>
</g>
</svg>
